<?xml version="1.0" encoding="UTF-8"?>
<!-- Generator: Adobe Illustrator 18.1.1, SVG Export Plug-In . SVG Version: 6.00 Build 0)  -->
<svg version="1.1" id="Layer_1" xmlns="http://www.w3.org/2000/svg" xmlns:xlink="http://www.w3.org/1999/xlink" x="0px" y="0px" viewBox="0 0 466.9 120.1" enable-background="new 0 0 466.9 120.1" xml:space="preserve">
<g>
	<g id="Symbol">
		<path fill="#B01C87" d="M60.6,89.7V42.9h11.8v46.7H60.6z M73.6,11c0-4-3.1-7.2-7.1-7.2c-4,0-7.2,3.2-7.2,7.2c0,4,3.2,7.1,7.2,7.1    C70.5,18.1,73.6,15,73.6,11z"/>
		<path fill="#D30C55" d="M35.4,6.3V53H23.6V6.3H35.4z M22.3,84.9c0,4,3.1,7.2,7.1,7.2c4,0,7.2-3.2,7.2-7.2c0-4-3.2-7.1-7.2-7.1    C25.4,77.9,22.3,81,22.3,84.9z"/>
		<path fill="#D40E8C" d="M89.7,35.4H42.9V23.6h46.7V35.4z M11,22.3c-4,0-7.2,3.1-7.2,7.1c0,4,3.2,7.2,7.2,7.2c4,0,7.1-3.2,7.1-7.2    C18.1,25.4,15,22.3,11,22.3z"/>
		<path fill="#ED1944" d="M6.3,60.6H53v11.8H6.3V60.6z M84.9,73.6c4,0,7.2-3.1,7.2-7.1c0-4-3.2-7.2-7.2-7.2c-4,0-7.1,3.2-7.1,7.2    C77.9,70.5,81,73.6,84.9,73.6z"/>
	</g>
	<g id="Wordmark">
		<path id="Insight_1_" fill="#554741" d="M120.2,89.7V6.3h13.7v83.4H120.2z M273.7,13.2c0-4.3-3.4-7.8-7.7-7.8    c-4.3,0-7.8,3.5-7.8,7.8c0,4.3,3.5,7.7,7.8,7.7C270.3,20.9,273.7,17.5,273.7,13.2z M272.6,89.7V30.8h-13.3v58.8H272.6z     M197.3,54.2L197.3,54.2c0-16.2-10.3-25-27.4-25c-11.9,0-21.3,5.4-22.5,5.9v54.6h13.3v-47c1.4-0.6,5.4-2.2,9.9-2.2    c9,0,13.5,5,13.5,13.6v35.6h13.3V54.2z M399.9,54.2c0-15.4-10.8-25.1-24.6-25.1c-8,0-11.7,2.4-12,2.5V3.2h-13.3v86.4h13.3v-47    c0.4-0.2,4.4-2.2,9.5-2.2c8.9,0,13.9,4.8,13.9,13.6v35.6H400L399.9,54.2L399.9,54.2z M249.3,73c0-9.9-7.1-14.2-14.2-17.3    c-1.2-0.5-5.1-2.1-5.7-2.4c-5-2.1-8.5-3.6-8.5-7.6c0-3,2.4-5.8,9.4-5.8c6.8,0,12.7,3.5,13.3,3.8l4.9-9.2c-0.4-0.2-6.9-5.3-19-5.3    c-12.9,0-21.8,7-21.8,17.6c0,9.5,6.7,13.7,13.1,16.3c0.8,0.3,6.4,2.7,7.7,3.2c5,2,7.5,4.1,7.5,7.4c0,3.6-3.3,6.9-10.5,6.9    c-7.5,0-13.9-4.2-14.9-4.8l-5,9.2c0.7,0.6,8.9,6.3,21.5,6.3C239.9,91.2,249.3,84.5,249.3,73z M337.1,35.1v50.3    c0,18.1-8.2,30.9-29.4,30.9c-8.3,0-14.3-1.6-15.4-1.8v-10.9c1.4,0.4,7.5,2,13.7,2c13.2,0,17.8-6.6,17.8-15.6v-1.1    c-0.9,0.4-5,2.3-11.4,2.3c-19,0-29.4-14.2-29.4-31c0-17.7,11-31.1,30.9-31.1C325.7,29.2,335.6,34.3,337.1,35.1z M323.9,42.7    c-0.8-0.4-4.8-2.2-10.2-2.2c-9.9,0-17.2,7.3-17.2,19.8c0,13.3,8.4,19.6,17.2,19.6c5.2,0,9.8-1.8,10.2-2.2V42.7z M425.1,41.7h15    V30.8H425V13.2h-13.1v53c0,16.1,7.2,23.5,23,23.5c0.5,0,5.3,0,5.3,0V78.6c-10.7,0-15-3.1-15-14.1L425.1,41.7z"/>
		<path id="R_2_" fill="#554741" d="M457.5,81.5c-3.1,0-5.6,2.5-5.6,5.5v0c0,3,2.4,5.5,5.5,5.5c3.1,0,5.6-2.5,5.6-5.5v0    C463.1,84,460.6,81.5,457.5,81.5z M462.2,87c0,2.6-2,4.7-4.7,4.7c-2.6,0-4.6-2.1-4.6-4.7v0c0-2.6,2-4.7,4.7-4.7    C460.2,82.3,462.2,84.4,462.2,87L462.2,87z M458.8,87.6c0.7-0.3,1.2-0.8,1.2-1.7v0c0-0.5-0.2-0.9-0.5-1.2c-0.4-0.4-1-0.6-1.7-0.6    h-2.5v5.6h1.2v-1.8h0.9h0l1.2,1.8h1.4L458.8,87.6z M458.8,86c0,0.5-0.3,0.8-1,0.8h-1.2v-1.7h1.2C458.4,85.1,458.8,85.4,458.8,86    L458.8,86z"/>
	</g>
</g>
</svg>