<?xml version="1.0" encoding="UTF-8" standalone="no"?>
<svg xmlns:dc="http://purl.org/dc/elements/1.1/" xmlns:cc="http://creativecommons.org/ns#" xmlns:rdf="http://www.w3.org/1999/02/22-rdf-syntax-ns#" xmlns:svg="http://www.w3.org/2000/svg" xmlns="http://www.w3.org/2000/svg" viewBox="0 0 714.52002 132.75999" height="132.75999" width="714.52002" xml:space="preserve" version="1.1" id="svg2"><metadata id="metadata8"><rdf:RDF><cc:Work rdf:about=""><dc:format>image/svg+xml</dc:format><dc:type rdf:resource="http://purl.org/dc/dcmitype/StillImage"/></cc:Work></rdf:RDF></metadata><defs id="defs6"><clipPath id="clipPath18" clipPathUnits="userSpaceOnUse"><path id="path20" d="M 0,995.668 0,0 l 5358.9,0 0,995.668 -5358.9,0 z"/></clipPath></defs><g transform="matrix(1.3333333,0,0,-1.3333333,0,132.76)" id="g10"><g transform="scale(0.1)" id="g12"><g id="g14"><g clip-path="url(#clipPath18)" id="g16"><path id="path22" style="fill:#c4c3c3;fill-opacity:1;fill-rule:nonzero;stroke:none" d="m 0,412.004 c 39.5039,-13.82 81.5234,-24.582 124.844,-24.582 37.133,0 88.008,9.219 86.265,49.148 -3.082,70.653 -186.2301,114.426 -190.1871,205.039 -2.4141,55.293 43.5859,95.227 145.2541,95.227 35.367,0 70.929,-4.609 106.527,-9.984 l 5.883,-53.754 c -30.461,9.211 -62.59,16.125 -102.375,16.125 -37.129,0 -81.8829,-7.68 -80.3087,-43.774 C 98.9492,575.57 282.102,531.797 286.254,436.57 c 3.121,-71.414 -79.766,-96.754 -148.727,-96.754 -43.3161,0 -86.9059,6.141 -128.85903,15.36 L 0,412.004"/><path id="path24" style="fill:#c4c3c3;fill-opacity:1;fill-rule:nonzero;stroke:none" d="m 553.656,736.836 c -146.758,0 -228.894,-82.938 -223.429,-208.109 5.054,-115.954 93.996,-188.911 226.613,-188.911 172.398,0 225.89,111.344 221.562,210.414 -5.058,115.958 -91.246,186.606 -224.746,186.606 z m -4.109,-47.613 c 101.676,0 149.988,-53.754 153.676,-138.227 3.824,-87.539 -34.414,-163.574 -146.696,-163.574 -99.902,0 -147.636,60.664 -151.054,139 -4.024,92.152 41.519,162.801 144.074,162.801"/><path id="path26" style="fill:#c4c3c3;fill-opacity:1;fill-rule:nonzero;stroke:none" d="m 798.445,680.777 0.578,47.614 56.582,0 c -4.804,89.847 -0.214,146.671 123.559,146.671 28.296,0 56.756,-3.839 84.396,-9.218 l 5.68,-49.145 c -24.14,6.145 -49.98,10.75 -81.806,10.75 -68.961,0 -66.985,-45.304 -64.637,-99.058 l 120.233,0 -1.45,-47.614 -116.709,0 c 3.484,-140.535 -0.238,-217.32 3.906,-332.515 l -78.683,0 c 4.011,110.586 2.687,221.933 2.285,332.515 l -53.934,0"/><path id="path28" style="fill:#c4c3c3;fill-opacity:1;fill-rule:nonzero;stroke:none" d="m 1075.79,680.777 -0.31,47.614 59.23,0 1.37,69.875 69.28,13.058 0.08,-82.933 119.35,0 0.31,-47.614 -120.23,0 c -0.29,-74.492 -2.94,-175.855 -0.83,-224.234 1.58,-36.094 9.04,-65.273 56.78,-65.273 28.29,0 49.31,4.609 69.44,9.218 l -7.48,-51.465 c -26.29,-5.371 -53.52,-9.207 -80.93,-9.207 -73.38,0 -108.93,24.579 -111.85,91.375 -1.87,43.008 3.34,166.645 3.26,249.586 l -57.47,0"/><path id="path30" style="fill:#c4c3c3;fill-opacity:1;fill-rule:nonzero;stroke:none" d="m 1871.15,410.469 1.76,0 138.19,317.922 73.38,0 -176.15,-380.129 -83.98,0 -108.14,310.246 -1.77,0 -118.19,-310.246 -82.22,0 -171.31,380.129 74.27,0 c 43.62,-108.286 92.45,-214.254 139.41,-317.922 l 1.77,0 120.51,317.922 78.68,0 113.79,-317.922"/><path id="path32" style="fill:#c4c3c3;fill-opacity:1;fill-rule:nonzero;stroke:none" d="m 2378.02,348.262 c 6.25,59.133 5.06,147.441 6.19,222.699 -54.41,-49.914 -248.5,-39.164 -244.53,-129.777 2.07,-47.61 56.6,-61.438 101.7,-61.438 30.93,0 61.64,5.371 90.45,13.828 L 2319.7,347.5 c -28.09,-4.609 -57.13,-7.684 -86.31,-7.684 -64.53,0 -160.53,11.512 -164.42,100.594 -6.97,159.731 316.65,98.297 312.11,201.969 -2.01,46.078 -62.49,54.523 -104.04,54.523 -55.7,0 -110.04,-10.75 -160.49,-29.949 l 5.78,49.918 c 53.4,12.285 107,19.965 162.69,19.965 145.88,0 169.24,-49.148 171.39,-98.297 2.48,-56.824 -4.29,-205.805 -0.6,-290.277 l -77.79,0"/><path id="path34" style="fill:#c4c3c3;fill-opacity:1;fill-rule:nonzero;stroke:none" d="m 2625.89,667.719 1.78,0 c 26.25,46.847 64.17,69.117 128.71,69.117 12.37,0 23.94,-1.539 34.65,-3.844 l 5.1,-56.058 c -16.09,3.843 -32.98,6.148 -49.78,6.148 -72.5,0 -108.37,-49.152 -115.61,-105.977 -6.7,-49.144 -2.94,-135.152 1.15,-228.843 l -77.8,0 c 2.28,109.812 6.3,220.394 -1.56,380.129 l 73.37,0 -0.01,-60.672"/><path id="path36" style="fill:#c4c3c3;fill-opacity:1;fill-rule:nonzero;stroke:none" d="m 3213.63,546.387 c 1.16,13.824 1.58,24.574 1.14,34.554 -4.56,104.442 -81.06,155.895 -196.88,155.895 -142.34,0 -214.45,-89.848 -209.33,-207.344 4.09,-93.691 54.26,-189.676 235.5,-189.676 45.09,0 89.05,5.379 132.82,15.36 l 9.93,56.054 c -41.89,-12.285 -89.14,-23.808 -133.34,-23.808 -99.9,0 -165.7,49.148 -169.56,137.465 l -0.94,21.5 330.66,0 z m -327.09,39.929 c 10.34,66.813 59.71,110.586 140.16,110.586 78.69,0 114.36,-47.609 117.1,-110.586 l -257.26,0"/><path id="path38" style="fill:#c4c3c3;fill-opacity:1;fill-rule:nonzero;stroke:none" d="m 3714.27,882.031 c -55.19,-12.066 -113.14,-19.875 -169.19,-27.422 l -6.19,-0.836 0,-17.089 2.77,-0.219 c 40.05,-3.199 58.72,-20.84 58.72,-55.512 l 0,-225.555 c 0,-43.621 -11.49,-71.168 -68.64,-73.699 l -2.86,-0.129 0,-17.625 130.27,2.657 130.33,-2.657 -0.06,3.059 0,14.566 -2.86,0.129 c -57.16,2.531 -68.64,30.078 -68.64,73.699 l 0,327.43 -3.65,-0.797"/><path id="path40" style="fill:#e51636;fill-opacity:1;fill-rule:nonzero;stroke:none" d="m 5308.16,139.316 c 43.51,-17.031 43.22,-47.441 -5.47,-70.3121 -49.81,-23.418 -136.42,-2.0312 -200.35,8.75 C 4860.93,118.418 4567.86,142.93 4183.27,123.77 3760.83,102.734 3437.76,65.8789 3093.77,3.88672 c -87.3,-15.73832 -89.95,20.35158 -33.48,36.75778 346.5,100.7425 693.23,168.8865 1142.55,195.4885 439.11,26.015 849.87,3.164 1105.32,-96.817"/><path id="path42" style="fill:#231f20;fill-opacity:1;fill-rule:nonzero;stroke:none" d="m 3650.27,334.434 c 232.27,0 396.84,135.781 396.84,343.168 0,223.203 -198.94,318.066 -394.76,318.066 -215.62,0 -385.39,-128.34 -385.39,-332.012 0,-199.027 153.11,-329.222 383.31,-329.222 z m 294.76,335.726 c 7.3,-102.293 -71.86,-305.043 -291.64,-305.043 -155.2,0 -284.36,98.594 -284.36,287.379 0,188.789 110.41,312.481 293.74,312.481 83.32,0 164.57,-31.622 216.65,-90.207 54.16,-62.313 65.61,-127.411 65.61,-204.61"/><path id="path44" style="fill:#231f20;fill-opacity:1;fill-rule:nonzero;stroke:none" d="m 4715.82,350.586 c 0,-15.195 -13.32,-18.809 -26.89,-4.609 -14.59,15.273 -36.65,39.961 -58.52,61.347 0,0 -448.59,420.973 -452.48,424.547 -3.88,3.574 -10.42,5.996 -10.42,0 0,-6.933 10,-486.285 10,-486.285 -10.42,0.937 -27.28,5.293 -36.66,5.293 -10.42,0 -27.29,-4.356 -36.67,-5.293 0,0 7.5,595.777 7.5,621.129 0,25.351 15.39,25.449 36.72,3.672 160.11,-163.399 496.28,-458.571 501.17,-462.614 4.88,-4.043 10.42,-6.464 10.42,0 0,6.465 -7.5,473.942 -7.5,473.942 9.37,-0.93 23.75,-5.293 34.16,-5.293 9.37,0 23.75,4.363 34.17,5.293 0,0 -5,-615.934 -5,-631.129"/><path id="path46" style="fill:#231f20;fill-opacity:1;fill-rule:nonzero;stroke:none" d="m 4895.59,704.574 235.33,0 c 31.24,0 61.46,3.723 92.7,4.649 -1.04,-7.442 -3.13,-15.809 -3.13,-24.18 0,-7.441 2.09,-15.809 3.13,-26.035 -31.24,0.93 -61.46,4.648 -92.7,4.648 l -235.33,0 2.5,-271.566 c 63.55,-1.856 212.41,1.855 274.91,3.73 32.29,0.918 63.54,8.711 95.82,13.36 -1.03,-10.235 -3.11,-23.594 -3.11,-32.891 0,-9.297 2.08,-18.613 3.11,-27.91 l -462.39,0 c 0,0 5,205.433 5,334.555 0,129.121 -5,298.781 -5,298.781 0,0 151.5,-2.5 224.83,-2.5 73.33,0 231.32,2.5 231.32,2.5 -1.04,-10.235 -3.12,-21.106 -3.12,-30.403 0,-9.296 0.91,-15.613 3.12,-27.898 -35.18,7.637 -83.46,12.734 -130.27,12.734 l -154.01,1.856 -80.21,0 -2.5,-233.43"/><path id="path48" style="fill:#231f20;fill-opacity:1;fill-rule:nonzero;stroke:none" d="m 5325.69,981.031 c 15.3,0 27.72,-12.328 27.72,-27.629 0,-15.3 -12.42,-27.718 -27.72,-27.718 -15.29,0 -27.63,12.418 -27.63,27.718 0,15.301 12.34,27.629 27.63,27.629 z m 0.1,5.492 c -18.19,0 -33.22,-14.671 -33.22,-33.121 0,-18.363 14.86,-33.211 33.22,-33.211 18.36,0 33.11,14.942 33.11,33.211 0,18.36 -14.94,33.121 -33.11,33.121 z m -14.58,-51.484 5.76,0 0,15.121 3.42,0 c 4.59,0 6.29,-1.801 10.61,-9.539 l 3.16,-5.582 7.02,0 -4.33,6.934 c -4.4,7.109 -6.21,8.187 -8.28,8.906 l 0,0.18 c 7.38,0.457 10.18,6.031 10.18,9.992 0,2.879 -1.35,5.398 -3.42,7.109 -2.98,2.524 -7.66,2.524 -11.8,2.524 l -12.32,0 0,-35.645 z m 5.76,30.781 6.56,0 c 3.52,0 9.09,0 9.09,-5.308 0,-5.399 -5.94,-5.399 -8.64,-5.399 l -7.01,0 0,10.707"/></g></g></g></g></svg>